<svg width="120" height="26" viewBox="0 0 120 26" fill="none" xmlns="http://www.w3.org/2000/svg">
<g id="PETROS_logotipo">
<path id="Vector" d="M13.2362 8.38601C12.8536 8.17649 10.0387 6.6552 7.14188 5.07925C8.982 4.59644 11.0954 4.04987 13.2362 3.48508C15.3769 4.04987 17.5085 4.59644 19.3304 5.07925C16.4245 6.6552 13.6188 8.1856 13.2362 8.38601Z" fill="#ADCECC"/>
<path id="Vector_2" d="M0.355247 1.39899L0.355247 0.105438C0.355247 0.105438 7.10542 1.87269 13.2361 3.48508C11.0954 4.04987 8.98198 4.60555 7.14186 5.07925C3.80776 3.27556 0.355247 1.39899 0.355247 1.39899Z" fill="#002F56"/>
<path id="Vector_3" d="M0.355293 15.3821C0.355293 15.3821 3.80781 13.5056 7.15101 11.7019C10.0387 10.1259 12.8536 8.60463 13.2362 8.39511C13.6188 8.1947 16.4245 6.6643 19.3305 5.08835C22.3366 5.88088 24.5685 6.46389 24.8326 6.53677C25.8984 6.82827 26.4724 7.48416 26.4724 8.40422C26.4724 9.32429 25.8893 9.98017 24.8326 10.2717C24.5685 10.3446 22.3366 10.9276 19.3305 11.7201C17.5086 12.2029 15.3769 12.7586 13.2362 13.3143C7.10546 14.9267 0.355293 16.6848 0.355293 16.6848L0.355293 15.4004" fill="#002F56"/>
<path id="Vector_4" d="M32.9766 16.6666L34.9989 15.2364L34.9989 1.53564L32.9766 0.105438L39.7723 0.105438C44.0629 0.105438 48.6723 1.7907 48.6723 4.87884C48.6723 7.96697 44.0538 9.64313 39.7723 9.64313L38.5789 9.64313L38.5789 15.2273L40.6104 16.6575L32.9766 16.6575M38.5789 8.30403L39.7723 8.30403C42.4687 8.30403 44.6186 6.7554 44.6186 4.87884C44.6186 3.00227 42.4687 1.45365 39.7723 1.45365L38.5789 1.45365L38.5789 8.30403Z" fill="#002F56"/>
<path id="Vector_5" d="M60.5238 16.6666L49.4193 16.6666L50.9497 15.6372L50.9497 5.81713L49.4193 4.78775L60.5238 4.78775L60.5238 7.1289L58.5106 5.76247L53.6461 5.76247L53.6461 9.82533L57.1351 9.82533L58.6655 8.79595L58.6655 11.8203L57.1351 10.7909L53.6461 10.7909L53.6461 15.701L58.5106 15.701L60.5238 14.3346L60.5238 16.6666Z" fill="#002F56"/>
<path id="Vector_6" d="M69.7336 15.6372L71.2366 16.6666L65.5067 16.6666L67.0371 15.6372L67.0371 5.76247L64.031 5.76247L62.0178 7.1289L62.0178 4.78775L74.7165 4.78775L74.7165 7.1289L72.7033 5.76247L69.7336 5.76247L69.7336 15.6372Z" fill="#002F56"/>
<path id="Vector_7" d="M82.2136 5.76247C83.9808 5.76247 85.2471 6.84651 85.2471 8.05808C85.2471 9.20588 83.9262 10.2444 82.2136 10.2444L80.4463 10.2444L80.4463 5.76247L82.2136 5.76247ZM85.0376 10.8729C86.987 10.4448 88.3443 9.27875 88.3443 8.05808C88.3443 5.99932 85.2197 4.78775 82.2227 4.78775L76.2195 4.78775L77.7499 5.81713L77.7499 15.6372L76.2195 16.6666L81.9859 16.6666L80.4555 15.6372L80.4555 11.21L82.4322 11.21L86.6591 16.6666L90.476 16.6666L88.9455 15.6372L85.0467 10.8729L85.0376 10.8729Z" fill="#002F56"/>
<path id="Vector_8" d="M97.9367 5.51651C101.052 5.51651 101.881 8.37691 101.881 10.7272C101.881 13.0774 101.052 15.9378 97.9367 15.9378C94.8212 15.9378 93.9558 13.0774 93.9558 10.7272C93.9558 8.37691 94.7939 5.51651 97.9367 5.51651ZM97.9367 16.9308C102.245 16.9308 104.969 13.8335 104.969 10.7363C104.969 7.63904 102.245 4.53268 97.9367 4.53268C93.6279 4.53268 90.8677 7.62993 90.8677 10.7363C90.8677 13.8426 93.6005 16.9308 97.9367 16.9308Z" fill="#002F56"/>
<path id="Vector_9" d="M119.973 12.1847C119.973 14.8538 117.713 17.4318 112.421 17.4318C111.71 17.4318 111.237 17.4045 110.672 17.3225L105.826 16.703L108.167 13.6695L110.754 15.9743C111.428 16.2293 111.911 16.3113 112.658 16.3113C115.8 16.3113 116.711 14.4347 116.711 13.3963C116.711 12.6402 116.192 11.711 115.081 11.2373L109.433 8.7595C107.483 7.92142 106.29 6.4639 106.29 4.96993C106.299 1.96378 109.834 0.542694 113.022 0.542694C114.097 0.542694 114.133 0.570022 114.853 0.652008L119.499 1.26235L117.158 4.06809L114.771 1.99111C114.097 1.76337 114.015 1.73604 113.213 1.73604C110.945 1.73604 109.642 2.94761 109.642 4.04076C109.642 4.79685 110.235 5.83534 112.066 6.61876L117.713 9.08745C118.424 9.40628 119.973 10.2444 119.973 12.1847Z" fill="#002F56"/>
<path id="Vector_10" d="M120 25.8945L120 19.527L0.828957 19.527L0.828956 25.8945L120 25.8945Z" fill="#81B3B0"/>
<path id="Vector_11" d="M13.2362 13.2869C15.3769 12.7313 17.5085 12.1756 19.3305 11.6928C22.6645 13.4965 26.1171 15.373 26.1171 15.373L26.1171 16.6575C26.1171 16.6575 19.3578 14.8902 13.2362 13.2869Z" fill="#81B3B0"/>
<path id="Vector_12" d="M13.2362 3.48508C19.3669 1.8818 26.1171 0.105438 26.1171 0.105438L26.1171 1.39899C26.1171 1.39899 22.6645 3.27556 19.3305 5.07925C17.5085 4.59644 15.3769 4.04987 13.2362 3.48508Z" fill="#81B3B0"/>
<path id="Vector_13" d="M1.6397 10.2535C0.58299 9.96197 -2.30729e-05 9.30608 -2.30327e-05 8.38602C-2.29925e-05 7.46595 0.582991 6.81007 1.6397 6.52767C1.90387 6.45479 4.13571 5.87178 7.14186 5.07925C10.0387 6.6552 12.8535 8.18561 13.2361 8.38602C12.8535 8.59554 10.0387 10.1168 7.15097 11.6928C4.14482 10.9003 1.91298 10.3172 1.6488 10.2444" fill="#81B3B0"/>
</g>
</svg>
